<?xml version="1.0" standalone="no"?>
<!DOCTYPE svg PUBLIC "-//W3C//DTD SVG 20010904//EN"
 "http://www.w3.org/TR/2001/REC-SVG-20010904/DTD/svg10.dtd">
<svg version="1.0" xmlns="http://www.w3.org/2000/svg"
 width="750.000000pt" height="369.000000pt" viewBox="0 0 750.000000 369.000000"
 preserveAspectRatio="xMidYMid meet">
<metadata>
Created by potrace 1.15, written by Peter Selinger 2001-2017
</metadata>
<g transform="translate(0.000000,369.000000) scale(0.100000,-0.100000)"
fill="#000000" stroke="none">
<path d="M2829 3661 c-63 -69 -76 -73 -221 -78 -73 -2 -144 -6 -158 -9 -14 -3
-97 -7 -185 -10 -88 -3 -173 -9 -189 -15 -16 -5 -79 -9 -141 -9 -61 0 -136 -4
-166 -9 -30 -5 -124 -12 -209 -15 -85 -4 -189 -8 -230 -11 -41 -3 -142 -10
-225 -16 -82 -5 -215 -14 -294 -20 -352 -24 -467 -30 -633 -36 l-178 -5 0
-912 0 -911 157 0 158 0 3 -44 c2 -24 -2 -49 -7 -54 -6 -6 -11 -21 -11 -32 0
-46 -29 -57 -170 -63 l-130 -5 0 -30 c0 -29 1 -29 38 -24 20 3 69 9 108 13 70
6 73 6 89 -19 15 -24 15 -30 0 -89 -22 -87 -38 -97 -147 -98 l-88 0 0 -150 0
-150 30 0 c20 0 30 -5 30 -15 0 -20 17 -19 29 3 7 12 22 17 54 17 58 0 69 17
68 104 0 60 18 164 39 216 4 11 13 40 20 65 6 25 16 53 21 62 5 10 9 27 9 37
0 11 4 30 9 43 5 13 19 56 32 95 12 40 32 82 45 94 24 23 75 39 146 46 35 4
49 10 53 24 4 10 21 34 38 52 18 19 41 49 52 68 11 19 32 57 48 84 16 28 33
52 37 55 14 9 80 147 80 167 0 20 45 97 77 132 32 35 40 47 47 68 4 11 15 28
26 38 11 10 20 23 20 30 0 14 67 117 104 160 36 42 39 47 54 75 26 49 40 60
115 89 12 4 40 16 62 26 46 20 158 39 228 38 38 0 51 -5 70 -27 19 -22 31 -26
76 -26 46 0 57 -4 77 -27 13 -16 24 -34 24 -40 0 -7 5 -13 10 -13 6 0 10 -8
10 -18 0 -9 9 -42 21 -72 12 -30 23 -65 26 -78 3 -12 9 -25 14 -28 5 -3 9 -18
9 -35 0 -27 -3 -29 -37 -31 -21 -1 -55 -1 -75 0 -25 2 -38 -2 -38 -10 0 -9
-15 -13 -48 -12 -54 1 -78 9 -86 30 -5 12 -21 15 -70 12 -39 -1 -69 2 -78 10
-9 7 -29 10 -49 6 -19 -3 -53 -8 -75 -11 -38 -4 -43 -8 -54 -44 -8 -24 -17
-36 -23 -30 -11 11 0 51 14 51 5 0 9 9 9 20 0 11 -7 20 -15 20 -8 0 -19 9 -25
21 -9 16 -19 19 -52 17 -35 -3 -42 -6 -43 -27 -2 -22 -10 -30 -59 -56 -11 -5
-28 -26 -39 -45 -11 -19 -23 -37 -27 -40 -14 -9 -21 -69 -11 -88 8 -16 5 -23
-22 -43 -18 -13 -36 -23 -42 -21 -5 1 -2 -4 8 -11 21 -17 22 -27 2 -27 -9 0
-15 -9 -15 -24 0 -14 -4 -27 -9 -30 -5 -3 -14 -30 -21 -58 -7 -29 -25 -72 -41
-95 -16 -23 -29 -50 -29 -61 0 -11 -9 -31 -21 -46 -11 -14 -17 -31 -14 -36 4
-6 -1 -22 -10 -36 -9 -13 -13 -29 -10 -34 3 -6 -7 -23 -24 -38 -17 -15 -33
-42 -37 -60 -4 -17 -13 -37 -20 -43 -17 -14 -18 -56 -1 -62 10 -4 10 -7 0 -18
-7 -7 -13 -21 -13 -31 0 -11 -7 -18 -20 -18 -25 0 -27 -20 -2 -20 17 -1 64
-30 47 -30 -4 0 0 -9 10 -20 10 -11 24 -20 32 -20 16 0 17 -22 1 -39 -8 -9 -9
-12 -1 -7 17 9 42 -4 36 -20 -3 -8 -11 -14 -19 -14 -8 0 -14 -4 -14 -10 0 -5
-5 -10 -10 -10 -6 0 -23 -12 -38 -26 l-27 -26 55 6 c30 4 65 10 78 13 31 7 29
-20 -5 -52 -29 -26 -26 -33 6 -13 23 14 53 4 45 -17 -3 -8 -1 -15 5 -15 6 0
11 -7 11 -16 0 -9 10 -24 21 -33 17 -14 20 -21 11 -37 -7 -13 -7 -25 -1 -37 8
-14 -5 -32 -73 -97 -45 -44 -88 -80 -94 -80 -7 0 -15 -6 -18 -12 -5 -10 -7
-10 -12 0 -3 6 -14 12 -23 12 -10 0 -20 3 -24 6 -9 9 4 34 18 34 7 0 18 7 25
15 9 11 9 15 1 15 -21 0 -111 -32 -117 -41 -3 -5 -16 -9 -30 -9 -13 0 -24 -4
-24 -10 0 -5 -17 -10 -37 -10 -21 0 -61 -6 -89 -14 -27 -7 -64 -12 -81 -10
-27 3 -33 -1 -53 -41 -13 -25 -26 -45 -30 -45 -4 0 -10 -9 -13 -20 -3 -12 -14
-20 -26 -20 -24 0 -28 -22 -6 -40 8 -7 15 -18 15 -25 0 -7 6 -18 14 -25 26
-21 7 -40 -39 -40 -24 0 -47 5 -50 10 -5 8 -11 7 -21 -1 -11 -9 -14 -8 -14 2
0 11 -2 11 -10 -1 -8 -12 -12 -9 -22 18 -11 29 -16 32 -55 32 l-43 0 0 -41 c0
-34 3 -40 16 -35 9 4 32 4 51 0 26 -5 37 -14 48 -41 22 -51 20 -65 -9 -57 -13
3 -42 0 -65 -6 l-41 -11 0 -169 0 -170 1106 0 1106 0 19 22 c10 13 18 35 19
49 0 14 3 28 6 31 6 7 49 -35 65 -63 12 -22 21 -19 24 9 1 9 6 25 10 34 9 21
1 118 -14 178 -13 52 -53 140 -63 140 -5 0 -8 7 -8 15 0 8 -4 15 -10 15 -5 0
-10 9 -10 20 0 11 -3 20 -7 20 -5 0 -19 17 -33 37 -13 20 -39 52 -57 72 -18
20 -43 51 -55 68 -13 18 -29 33 -37 33 -7 0 -29 16 -49 36 l-36 36 -8 -27 c-3
-15 -4 -33 -1 -42 5 -13 1 -12 -31 1 -40 17 -94 12 -103 -10 -2 -7 -28 -18
-56 -24 -28 -6 -55 -16 -59 -23 -6 -9 -8 -8 -8 3 1 8 7 24 15 34 20 27 19 76
-2 92 -13 10 -57 13 -157 14 -127 0 -186 -8 -241 -31 -11 -4 -39 -13 -62 -19
-24 -6 -43 -15 -43 -20 0 -6 -9 -10 -20 -10 -11 0 -20 -4 -20 -9 0 -5 -14 -14
-30 -21 -16 -7 -31 -15 -31 -19 -6 -29 -3 -104 5 -109 15 -9 141 -4 169 7 19
8 34 6 58 -6 28 -14 31 -19 25 -52 -6 -40 -37 -71 -70 -71 -16 0 -18 -2 -7 -9
11 -7 5 -11 -21 -16 -60 -11 -82 -4 -92 32 -7 23 -17 33 -38 37 -33 6 -37 21
-8 29 11 3 20 10 20 15 0 14 -61 -3 -71 -20 -6 -9 -11 -9 -22 0 -13 11 -53 4
-99 -19 -10 -5 -29 -9 -43 -9 -14 0 -33 -4 -43 -9 -9 -5 -37 -14 -62 -21 -25
-7 -53 -16 -64 -22 -14 -7 -23 -5 -40 11 -12 12 -27 21 -33 21 -6 0 -13 6 -16
13 -3 9 -11 9 -39 -1 -19 -6 -51 -12 -71 -12 l-38 0 15 28 c8 15 31 37 50 47
20 11 36 23 36 27 0 5 5 8 12 8 19 0 176 173 179 197 0 4 25 28 54 53 30 25
65 67 79 93 14 27 35 59 48 71 13 12 32 33 43 47 38 48 211 150 275 163 19 4
58 11 85 17 28 5 86 12 130 16 44 3 82 9 85 12 3 4 21 18 40 31 19 13 53 40
76 59 22 20 49 43 60 51 32 26 122 70 142 70 10 0 22 3 26 7 12 12 80 33 108
33 15 0 38 5 51 11 29 13 61 0 89 -37 23 -28 84 -50 101 -36 7 6 30 14 52 18
21 4 48 15 59 26 16 14 30 17 70 13 28 -3 44 -2 36 1 -8 3 -22 8 -30 12 -24 9
-133 33 -154 33 -11 0 -30 9 -44 20 -14 10 -34 19 -44 19 -11 0 -22 9 -25 20
-3 11 -11 20 -17 20 -7 0 -18 6 -25 13 -12 12 -16 13 -45 16 -8 0 -17 12 -20
26 -4 14 -11 25 -16 25 -5 0 -7 -7 -4 -15 10 -25 -5 -17 -37 20 -17 20 -36 35
-43 34 -26 -5 -65 14 -71 34 -6 19 -8 20 -12 5 -7 -29 -20 -21 -27 17 -4 19
-11 35 -16 35 -6 0 -10 -4 -10 -9 0 -5 -7 -11 -15 -15 -21 -8 -14 30 9 47 17
12 17 15 -1 48 -13 23 -29 36 -48 39 -16 3 -30 11 -33 18 -3 9 13 12 58 12 40
0 59 -4 55 -10 -9 -15 14 -40 31 -33 10 4 14 -3 14 -22 0 -15 4 -24 10 -20 6
3 10 15 10 26 0 28 17 23 28 -8 7 -19 11 -22 11 -10 1 11 13 22 31 29 42 14
32 33 -18 33 -23 0 -42 3 -42 8 0 4 23 7 50 7 43 0 50 -3 50 -20 0 -14 7 -20
21 -20 14 0 19 -5 16 -14 -7 -18 11 -36 29 -29 8 3 14 14 14 24 0 13 7 19 21
19 17 0 19 -4 13 -22 -3 -13 -11 -24 -15 -26 -19 -8 -7 -22 18 -22 25 0 26 -1
8 -20 -16 -17 -16 -20 -2 -26 9 -3 21 -3 27 1 6 4 17 2 24 -5 11 -8 20 -5 41
15 35 31 68 36 40 5 -18 -19 -17 -20 13 -31 33 -11 38 -28 33 -100 -2 -23 1
-26 24 -22 30 6 30 7 9 28 -9 9 -13 19 -10 23 4 3 11 0 16 -8 7 -12 14 -12 27
-4 20 12 91 7 109 -7 12 -10 177 21 212 40 11 6 30 11 41 11 12 0 21 5 21 10
0 6 7 10 15 10 8 0 23 4 33 9 9 5 31 13 47 18 20 6 31 16 33 32 6 39 -7 71
-28 71 -11 0 -20 4 -20 9 0 9 48 0 69 -14 6 -3 32 -43 59 -88 50 -86 61 -99
175 -219 37 -39 67 -75 67 -79 0 -10 32 -50 81 -101 29 -30 40 -36 60 -30 44
14 88 46 94 69 3 13 10 23 15 23 6 0 10 5 10 10 0 6 -7 10 -15 10 -21 0 -19
16 5 33 11 8 17 16 14 20 -8 8 16 77 27 77 5 0 9 6 9 13 0 8 10 34 23 58 19
38 32 58 74 114 5 6 14 22 22 37 8 15 22 37 33 47 10 11 18 25 18 31 0 5 5 10
10 10 6 0 10 7 10 15 0 8 4 15 8 15 5 0 14 10 20 22 6 13 26 50 44 83 40 71
57 124 75 232 10 60 23 23 23 -65 0 -48 7 -118 16 -157 8 -38 18 -80 20 -92 2
-13 23 -35 47 -50 23 -15 44 -30 47 -33 9 -10 94 -46 140 -59 25 -7 53 -17 62
-22 10 -5 29 -9 42 -9 14 0 28 -4 31 -10 3 -5 15 -10 26 -10 10 0 38 -8 62
-19 98 -43 91 -42 129 -8 19 18 45 40 57 50 67 54 212 113 321 130 86 13 370
13 441 0 76 -15 259 -74 259 -85 0 -4 9 -8 20 -8 11 0 20 -4 20 -8 0 -5 16
-14 35 -22 19 -8 35 -18 35 -23 0 -14 62 -3 70 13 4 8 14 29 21 45 18 40 27
45 75 45 22 0 67 5 99 11 53 10 60 9 79 -10 18 -19 19 -25 8 -53 -14 -39 -2
-58 39 -58 28 0 29 2 29 48 1 54 15 78 52 87 20 5 29 2 37 -13 16 -29 14 -36
-11 -47 -27 -12 -46 -74 -26 -86 7 -5 23 -9 35 -9 38 0 78 -31 102 -81 12 -27
38 -65 57 -86 19 -20 34 -41 34 -45 0 -4 7 -8 16 -8 9 0 24 -8 33 -18 9 -9 34
-31 56 -47 22 -16 46 -35 53 -41 6 -7 21 -16 32 -19 11 -3 20 -10 20 -14 0 -4
16 -13 35 -21 19 -8 35 -17 35 -22 0 -4 9 -8 20 -8 11 0 20 -4 20 -9 0 -8 47
-22 85 -25 13 -1 21 -9 23 -23 2 -13 8 -23 13 -23 20 0 7 -20 -23 -34 -31 -15
-101 -16 -115 -2 -12 12 -23 6 -23 -13 0 -11 -8 -26 -18 -33 -19 -14 -39 -54
-22 -43 6 3 10 1 10 -4 0 -6 -9 -11 -19 -11 -11 0 -23 -5 -26 -10 -4 -6 -54
-10 -128 -9 -68 1 -142 -4 -167 -10 -40 -11 -46 -10 -58 6 -12 17 -14 17 -26
1 -9 -13 -22 -15 -57 -11 -65 7 -77 12 -59 23 12 8 12 10 -3 16 -23 8 -22 23
4 44 11 10 21 28 22 39 1 13 6 20 14 17 8 -3 13 2 13 14 0 24 -13 28 -140 35
-58 4 -123 11 -145 15 -23 5 -44 5 -51 0 -6 -6 -13 -7 -16 -4 -10 10 -142 12
-188 3 -25 -4 -70 -11 -100 -14 -75 -7 -180 -31 -193 -44 -16 -16 -26 -14 -52
15 -19 21 -28 24 -39 15 -10 -9 -16 -8 -25 3 -7 8 -20 12 -28 9 -13 -5 -15 -1
-9 20 8 34 59 120 91 155 25 27 31 42 18 42 -13 0 -63 -47 -63 -59 0 -6 -3
-11 -7 -11 -5 0 -25 -26 -45 -58 -35 -54 -97 -115 -141 -137 -11 -5 -19 -14
-18 -18 3 -10 -38 -47 -50 -47 -13 0 -76 -63 -82 -82 -4 -10 -13 -18 -21 -18
-8 0 -22 -20 -31 -45 -10 -24 -21 -42 -25 -40 -4 3 -10 -6 -14 -18 -3 -13 -16
-35 -29 -50 -12 -15 -29 -48 -36 -74 -8 -27 -18 -53 -23 -60 -5 -7 -13 -37
-17 -67 -6 -43 -5 -56 5 -56 7 0 11 -8 9 -20 -6 -33 31 -25 45 10 17 41 50 41
50 0 0 -16 5 -30 10 -30 6 0 10 -8 10 -19 0 -31 24 -43 40 -21 8 11 22 20 32
20 20 0 25 -20 6 -20 -7 0 -5 -5 5 -11 13 -8 24 -5 44 10 31 25 62 27 78 4 22
-29 44 -9 41 37 -2 22 1 43 6 47 6 3 4 9 -3 14 -10 6 -10 9 -2 9 14 0 73 -61
73 -76 0 -5 7 -19 15 -30 15 -17 15 -13 10 54 -5 72 -5 72 20 72 22 0 25 -4
25 -34 0 -19 -6 -37 -12 -39 -10 -4 -10 -8 -1 -14 13 -10 14 -83 0 -100 -6 -9
-6 -13 1 -13 5 0 12 -10 16 -22 4 -17 -2 -29 -19 -44 -24 -20 -36 -52 -15 -39
6 4 10 -9 10 -33 0 -21 7 -52 15 -69 11 -22 13 -46 9 -92 -4 -33 -11 -61 -15
-61 -5 0 -9 -9 -9 -20 0 -11 3 -20 8 -20 4 0 13 -9 20 -21 10 -16 10 -24 1
-35 -9 -11 -8 -14 2 -14 11 0 11 -2 -1 -10 -10 -6 330 -10 970 -10 860 1 982
2 965 15 -58 41 -84 68 -87 88 -2 14 -13 24 -33 28 -16 4 -50 13 -74 19 -24 6
-127 12 -230 15 -102 2 -213 4 -246 5 l-60 2 60 13 c33 7 110 16 170 19 103 7
298 32 264 35 -17 1 -71 55 -88 89 -7 12 -18 22 -26 22 -7 0 -33 15 -57 33
-24 18 -56 38 -71 45 -15 6 -31 20 -34 29 -9 24 -75 87 -91 87 -7 1 -27 16
-45 34 -101 102 -114 112 -156 112 -23 0 -41 5 -41 10 0 6 15 10 34 10 19 0
38 5 41 10 3 6 21 10 39 10 17 0 36 4 41 9 6 5 46 16 91 24 44 9 93 21 108 27
36 13 107 14 86 0 -11 -7 -11 -10 -2 -10 7 0 10 -4 7 -10 -3 -5 -1 -10 4 -10
6 0 11 5 11 10 0 6 8 10 18 9 10 0 12 -3 5 -6 -24 -9 -13 -19 37 -33 33 -9 47
-17 41 -24 -13 -16 33 -66 61 -67 17 -1 18 -3 6 -6 -35 -9 -19 -25 18 -18 25
4 34 3 29 -4 -12 -21 4 -49 26 -44 14 4 30 -6 57 -35 21 -22 50 -44 65 -47 15
-4 27 -12 27 -19 0 -6 25 -25 56 -41 51 -27 104 -78 104 -101 0 -9 46 -34 62
-34 4 0 17 -9 28 -20 11 -11 27 -20 35 -20 13 0 15 39 15 290 l0 289 -29 -5
c-22 -5 -34 0 -52 19 -21 21 -29 23 -56 15 -18 -5 -33 -15 -33 -23 0 -25 -40
-29 -63 -7 l-20 21 -18 -23 c-16 -20 -31 -25 -106 -31 -81 -7 -88 -6 -104 14
-25 30 -72 28 -87 -4 -14 -29 -53 -34 -98 -10 -20 10 -23 15 -11 15 9 0 17 5
17 10 0 6 9 10 19 10 11 0 23 5 26 10 3 6 22 10 41 10 19 0 34 5 34 10 0 6 9
10 19 10 11 0 23 5 26 10 3 6 15 10 26 10 10 0 19 5 19 10 0 6 14 10 30 10 17
0 30 5 30 10 0 6 7 10 16 10 8 0 50 16 91 36 l76 37 18 -24 c10 -13 19 -30 19
-36 0 -7 9 -13 20 -13 16 0 20 7 20 35 0 32 -2 35 -31 35 -17 0 -29 4 -27 9 2
5 26 34 55 65 30 32 57 73 64 96 9 28 21 43 41 52 22 10 28 19 28 45 0 18 -4
33 -10 33 -5 0 -10 6 -10 14 0 7 -6 26 -14 40 l-14 27 -20 -28 c-18 -26 -27
-29 -83 -31 -40 -2 -74 -9 -93 -21 -17 -11 -44 -19 -61 -19 -16 0 -31 -5 -33
-11 -2 -6 -12 -11 -23 -11 -11 0 -19 -7 -19 -17 0 -14 -2 -15 -9 -4 -7 11 -9
11 -14 0 -3 -8 -6 3 -6 24 -1 30 -5 37 -21 37 -13 0 -20 7 -20 20 0 16 7 20
30 20 17 0 30 5 30 10 0 6 -5 10 -11 10 -7 0 -9 10 -5 25 4 17 2 25 -7 25 -20
0 -37 -21 -37 -47 0 -13 -5 -23 -11 -23 -5 0 -8 -4 -5 -9 8 -12 -60 -51 -89
-51 -13 0 -43 10 -67 21 -23 12 -54 26 -68 31 -50 19 -114 55 -118 67 -3 8 11
11 47 9 28 -2 51 -6 51 -10 0 -5 9 -8 20 -8 11 0 20 3 20 8 0 4 20 18 45 32
37 20 45 30 45 52 0 25 -4 28 -33 28 -19 0 -36 3 -40 6 -3 3 -27 8 -53 10 -26
2 -55 6 -66 9 -12 4 -18 1 -18 -9 0 -11 -9 -16 -29 -16 -47 0 -61 -10 -61 -42
0 -23 -4 -29 -16 -24 -9 3 -19 6 -23 6 -5 0 -22 13 -39 30 -18 16 -36 30 -40
30 -5 0 -26 21 -48 46 -21 25 -45 52 -52 60 -7 8 -11 18 -8 22 3 5 -8 21 -25
36 -31 29 -40 81 -18 103 8 8 8 19 -2 42 -8 17 -17 31 -21 31 -5 0 -8 7 -8 15
0 8 -4 15 -8 15 -15 0 -43 96 -37 123 5 20 2 29 -14 39 -12 7 -21 20 -21 30 0
9 -3 18 -7 21 -5 2 -1 2 7 -1 8 -2 22 -5 30 -7 8 -2 17 -4 20 -5 3 -1 8 -2 11
-2 4 1 21 -3 38 -8 24 -6 35 -5 46 7 25 25 12 38 -33 35 -26 -2 -50 2 -64 12
-12 9 -17 16 -10 16 22 0 24 28 4 50 -13 14 -19 31 -16 46 3 17 0 24 -11 24
-8 0 -15 4 -15 10 0 5 -7 7 -15 4 -9 -4 -15 0 -15 10 0 20 -17 21 -37 0 -12
-12 -18 -12 -23 -3 -4 6 -13 8 -19 5 -6 -4 -11 0 -11 8 0 10 9 16 24 16 22 0
24 4 28 58 2 31 0 59 -4 60 -5 2 -5 9 -2 14 4 7 2 8 -4 4 -6 -4 -19 3 -29 15
-10 12 -35 40 -55 63 -21 22 -38 47 -38 54 0 6 -7 12 -15 12 -9 0 -19 8 -22
18 -4 9 -15 26 -25 36 -10 11 -18 32 -18 46 0 15 -9 35 -20 45 -11 10 -20 24
-20 32 0 20 -24 16 -38 -7 -13 -21 -13 -21 -40 -2 -15 11 -45 25 -67 33 -49
16 -85 46 -68 57 16 10 28 82 14 82 -7 0 -25 14 -41 30 -27 27 -35 30 -94 30
-36 0 -68 -4 -71 -10 -10 -16 -26 -11 -23 8 2 11 -3 16 -14 14 -11 -2 -18 3
-18 13 0 8 -4 15 -9 15 -5 0 -11 8 -13 18 -4 14 -13 17 -51 14 -41 -4 -47 -7
-47 -27 0 -16 -7 -25 -25 -29 -14 -4 -25 -13 -25 -21 0 -14 34 -20 89 -17 17
0 41 -22 41 -39 0 -17 -40 -49 -60 -49 -10 0 -30 15 -46 33 -40 46 -42 47
-108 32 -50 -12 -61 -12 -73 0 -9 10 -30 13 -61 11 -39 -3 -48 -8 -50 -25 -2
-12 -10 -21 -18 -21 -8 0 -14 -4 -14 -10 0 -5 -13 -10 -30 -10 -25 0 -30 -4
-30 -25 0 -18 -5 -25 -20 -25 -14 0 -20 7 -20 21 0 22 39 101 53 107 4 2 7 12
7 23 0 10 5 19 10 19 6 0 10 5 10 10 0 6 9 20 20 32 11 12 20 28 20 35 0 7 4
13 9 13 5 0 13 10 17 23 3 12 15 34 25 49 11 14 19 33 19 42 0 9 5 16 10 16 6
0 10 5 10 10 0 28 85 75 172 96 26 6 89 -16 191 -67 22 -10 45 -19 53 -19 8 0
14 -4 14 -10 0 -5 6 -10 14 -10 16 0 188 -85 228 -112 14 -10 33 -18 42 -18 9
0 16 -4 16 -10 0 -5 7 -10 15 -10 9 0 35 -9 57 -20 23 -11 47 -20 52 -20 6 0
20 -7 30 -15 16 -12 17 -17 6 -30 -7 -8 -11 -17 -9 -18 9 -5 105 -72 114 -79
36 -28 72 -66 78 -80 3 -10 12 -18 19 -18 7 0 22 -12 33 -27 33 -44 49 -57 53
-44 5 15 22 4 22 -15 0 -16 64 -85 77 -83 22 4 35 -2 30 -15 -5 -12 52 -76 67
-76 7 0 40 -27 80 -66 17 -16 47 -39 66 -50 19 -10 63 -47 98 -81 34 -35 68
-63 74 -63 6 0 9 -3 5 -6 -3 -3 25 -36 62 -72 60 -60 145 -167 195 -247 11
-16 28 -37 38 -46 10 -9 19 -27 19 -40 1 -21 2 -20 8 6 5 20 2 38 -8 54 -9 13
-17 36 -18 50 l-2 26 10 -24 c7 -19 12 -22 21 -13 7 7 18 12 25 12 18 0 16
-29 -2 -36 -29 -12 -15 -26 18 -20 17 4 48 10 67 13 31 6 32 7 12 12 -13 3
-22 9 -20 12 7 14 -26 39 -43 34 -16 -5 -19 -1 -19 27 -1 27 -3 30 -13 18 -7
-8 -21 -22 -31 -30 -18 -14 -18 -13 -11 9 5 16 4 21 -4 17 -6 -4 -11 -14 -11
-22 0 -8 -7 -14 -15 -14 -8 0 -15 5 -15 11 0 7 -8 17 -17 24 -15 11 -14 14 15
29 32 17 45 33 17 22 -18 -6 -45 2 -45 15 0 13 78 11 86 -3 5 -7 10 -4 15 10
10 26 57 51 67 35 4 -5 19 -9 34 -9 19 1 29 -4 33 -19 4 -13 8 -15 12 -8 11
28 41 12 65 -34 15 -31 32 -49 45 -51 27 -4 38 26 18 48 -15 16 -12 17 40 15
l55 -3 0 799 0 799 -1624 0 c-894 0 -1627 -4 -1630 -8 -5 -8 -317 -26 -421
-24 -54 1 -114 12 -121 23 -3 5 -191 9 -427 9 l-422 0 -26 -29z m73 -173 c-19
-19 -14 -46 9 -53 16 -5 20 -14 18 -38 -2 -33 8 -67 20 -67 3 0 11 10 16 22 6
13 24 27 40 33 17 5 33 14 37 20 4 5 10 6 15 2 9 -10 -75 -87 -96 -87 -22 -1
-51 -24 -51 -42 0 -9 -9 -18 -20 -21 -12 -3 -20 0 -20 7 0 7 9 21 20 31 21 19
27 55 10 55 -5 0 -10 -7 -10 -15 0 -18 -5 -19 -29 -3 -15 9 -22 8 -36 -5 -9
-9 -27 -20 -39 -23 -22 -5 -46 -40 -46 -65 0 -6 -6 -16 -13 -23 -8 -8 -11 -31
-9 -59 3 -38 8 -47 23 -47 14 0 19 -7 19 -30 0 -32 9 -37 28 -18 10 10 17 10
33 0 16 -10 35 -10 102 2 45 8 105 18 133 21 42 5 54 11 65 33 12 24 22 35 66
72 7 5 15 10 18 10 7 0 63 39 82 57 7 6 22 15 33 18 11 3 20 10 20 14 0 12 72
48 109 55 18 3 42 16 52 28 l19 21 0 -21 c0 -23 10 -28 26 -13 5 5 19 12 32
16 18 5 22 2 22 -15 0 -12 8 -24 18 -27 21 -6 72 -77 72 -101 0 -10 5 -23 12
-30 9 -9 9 -12 0 -12 -7 0 -12 -16 -12 -41 0 -41 23 -85 62 -120 10 -9 18 -24
18 -33 0 -9 5 -16 10 -16 6 0 10 -8 10 -18 0 -10 3 -22 7 -26 12 -12 31 -77
38 -130 4 -28 12 -56 17 -63 5 -7 7 -22 3 -34 -5 -15 -3 -20 6 -17 10 3 15 30
17 96 1 51 7 92 12 92 6 0 10 6 10 14 0 7 20 30 44 50 54 44 89 47 122 9 26
-31 29 -39 14 -48 -5 -3 -10 3 -10 14 0 34 -45 26 -90 -16 -44 -40 -56 -85
-20 -76 10 3 22 13 25 23 3 10 12 21 20 24 20 7 65 -14 65 -31 0 -7 5 -13 10
-13 6 0 10 17 10 38 0 27 3 33 10 22 23 -36 6 -255 -26 -335 -10 -24 -84 -99
-107 -108 -31 -12 -64 35 -71 101 -9 71 -15 92 -27 92 -5 0 -9 -9 -9 -20 0
-11 -4 -20 -8 -20 -5 0 -7 -18 -6 -40 1 -22 -2 -40 -6 -40 -4 0 -11 -11 -14
-25 -4 -15 -14 -25 -24 -25 -9 0 -30 -11 -45 -24 -17 -15 -35 -22 -44 -19 -12
5 -14 3 -8 -6 4 -8 2 -16 -5 -21 -9 -6 -9 -12 2 -29 11 -18 11 -23 -2 -31 -11
-7 -12 -12 -3 -21 14 -14 33 -4 33 19 0 12 3 13 11 5 13 -13 42 -6 33 8 -3 5
0 9 5 9 6 0 11 -6 11 -12 1 -8 5 -7 14 4 8 11 20 15 34 11 24 -6 30 -23 10
-23 -9 0 -8 -4 2 -10 10 -6 11 -10 3 -10 -7 0 -13 -11 -13 -25 0 -14 -4 -25
-10 -25 -5 0 -10 -6 -10 -14 0 -22 -19 -30 -35 -16 -12 10 -15 8 -15 -11 0
-13 -10 -36 -23 -51 -12 -14 -31 -37 -42 -50 -11 -13 -18 -34 -16 -50 3 -31
-24 -50 -57 -41 -13 3 -28 -1 -37 -11 -9 -9 -23 -16 -30 -16 -8 0 -17 -9 -20
-20 -3 -11 -12 -20 -20 -20 -7 0 -15 -6 -18 -14 -3 -8 -14 -12 -25 -9 -10 2
-39 -4 -63 -15 -71 -31 -113 -42 -157 -42 -22 0 -52 -4 -66 -10 -17 -6 -26 -6
-26 0 0 6 -9 10 -20 10 -11 0 -20 -7 -20 -15 0 -20 -9 -19 -33 3 -15 12 -21
14 -24 5 -6 -18 -33 -16 -33 2 0 8 -4 15 -10 15 -5 0 -10 6 -10 13 0 7 -9 19
-20 27 -11 8 -20 22 -20 32 0 16 2 16 33 -2 l34 -20 12 26 c10 23 9 26 -4 21
-9 -4 -15 -1 -15 7 0 16 -24 28 -44 20 -7 -3 -19 -16 -26 -30 -12 -21 -16 -23
-28 -10 -8 8 -15 27 -16 43 -1 23 -6 29 -26 31 -14 1 -26 7 -28 12 -2 6 -11
10 -20 10 -15 1 -15 2 1 14 9 7 17 20 17 29 0 9 5 19 10 22 6 3 10 14 10 24 0
10 9 21 20 24 27 7 15 37 -15 37 -15 0 -25 8 -30 23 -12 34 -13 39 -14 85 -1
35 -4 42 -21 42 -11 0 -20 -7 -20 -15 0 -10 -7 -15 -17 -13 -12 2 -17 -2 -14
-12 2 -8 4 -24 6 -35 1 -11 3 -23 4 -27 0 -5 7 -8 15 -8 15 0 26 -21 26 -51 0
-11 6 -22 14 -25 17 -7 10 -33 -13 -51 -23 -18 -31 -16 -31 7 0 11 -4 28 -9
38 -5 9 -14 36 -20 60 -7 25 -18 42 -26 42 -31 0 -65 42 -65 80 0 20 -8 54
-19 76 -13 27 -20 70 -23 141 -3 59 -10 108 -17 117 -7 8 -11 25 -9 38 4 32
41 36 56 6 12 -23 11 88 -4 365 -3 72 -2 107 5 107 6 0 11 9 11 20 0 11 5 20
10 20 6 0 10 9 10 20 0 11 -6 20 -14 20 -32 0 -26 47 11 87 16 18 23 16 23 -7
0 -29 25 -25 46 7 10 16 19 23 22 15 8 -25 62 -2 62 27 0 14 22 54 35 63 16
12 30 9 17 -4z m2821 -734 c9 -4 17 -11 17 -16 0 -5 5 -6 11 -3 6 4 21 -3 34
-15 15 -14 30 -20 43 -16 19 6 19 5 2 -46 -16 -49 -19 -53 -50 -54 -30 -1
-111 23 -125 38 -3 3 1 25 9 49 9 24 16 52 16 62 0 11 5 16 13 13 6 -3 20 -9
30 -12z m-3923 -535 c0 -4 19 -9 43 -11 42 -3 42 -3 42 -43 0 -38 -2 -40 -32
-43 -27 -3 -33 0 -33 16 0 11 -9 22 -20 25 -16 4 -20 0 -20 -19 0 -20 -5 -24
-32 -24 -29 0 -68 23 -68 40 0 11 37 50 48 50 5 0 12 9 15 20 5 18 8 19 31 9
14 -7 26 -16 26 -20z m3796 -1398 c17 -10 41 -22 55 -26 13 -4 35 -16 48 -26
l24 -19 -39 0 c-22 0 -45 4 -53 9 -9 6 -19 5 -27 -4 -14 -14 -109 -29 -124
-20 -18 11 -11 64 12 85 27 25 64 26 104 1z m355 -672 c22 -13 19 -14 -46 -21
-80 -8 -193 -15 -379 -23 -71 -4 -142 -9 -158 -12 -25 -5 -28 -3 -28 20 0 14
4 29 10 32 5 3 95 6 200 6 104 1 192 4 194 8 8 12 183 3 207 -10z"/>
<path d="M3460 2962 c-48 -12 -81 -19 -176 -36 -46 -8 -114 -57 -114 -82 0 -6
7 -14 15 -18 8 -3 24 -25 36 -50 17 -36 29 -48 63 -61 23 -9 58 -30 77 -46 23
-20 45 -29 68 -29 33 0 34 0 16 20 -10 11 -25 20 -34 20 -9 0 -29 12 -46 25
l-30 26 33 -7 c83 -16 165 7 176 49 4 16 11 18 43 13 42 -7 55 -1 70 29 22 47
-4 121 -51 147 -29 16 -80 16 -146 0z"/>
<path d="M2860 2891 c-42 -4 -75 -13 -92 -26 -33 -25 -56 -64 -43 -73 6 -4 11
-21 11 -38 1 -17 9 -43 19 -57 15 -24 21 -26 61 -20 29 4 49 1 59 -7 11 -9 32
-11 69 -6 43 5 58 3 71 -10 37 -37 95 37 95 121 0 24 5 47 10 50 17 10 11 25
-10 25 -11 0 -20 5 -20 10 0 6 -6 10 -14 10 -7 0 -19 7 -26 15 -13 16 -64 17
-190 6z"/>
<path d="M3220 2440 c-40 -14 -70 -18 -107 -14 -48 5 -53 3 -53 -14 0 -11 7
-25 15 -32 8 -7 15 -18 15 -25 0 -8 14 -19 30 -27 37 -16 41 -41 5 -32 -20 5
-25 2 -31 -20 -3 -14 -10 -24 -14 -21 -4 3 -13 -2 -20 -10 -7 -8 -18 -15 -25
-15 -18 0 -35 -54 -35 -111 0 -52 8 -61 27 -30 15 24 108 72 163 84 82 17 265
20 297 4 15 -8 34 -12 41 -10 17 7 15 40 -4 47 -8 3 -12 10 -9 16 3 5 -5 15
-19 21 -14 7 -26 19 -28 27 -4 18 -65 27 -84 11 -10 -8 -19 -7 -36 5 -12 9
-35 16 -50 16 -51 0 -45 29 13 59 30 15 55 59 41 73 -17 17 -78 16 -132 -2z"/>
<path d="M3193 2136 c-18 -8 -23 -19 -23 -48 0 -39 21 -55 58 -44 9 3 38 6 65
8 42 1 47 4 47 25 0 14 6 23 15 23 8 0 15 7 15 15 0 8 -7 15 -15 15 -8 0 -15
4 -15 9 0 12 -121 10 -147 -3z"/>
</g>
</svg>
